<svg width="26" height="26" viewBox="0 0 26 26" fill="none" xmlns="http://www.w3.org/2000/svg">
<path d="M11.0508 9.87496V16.8989C11.0589 17.4125 11.2686 17.9023 11.6347 18.2627C12.0008 18.623 12.4939 18.825 13.0076 18.825C13.5213 18.825 14.0143 18.623 14.3804 18.2627C14.7465 17.9023 14.9562 17.4125 14.9644 16.8989L14.9707 7.69235C14.976 7.25335 14.8942 6.81766 14.7298 6.41053C14.5655 6.00341 14.322 5.63295 14.0135 5.32063C13.7049 5.00831 13.3375 4.76034 12.9324 4.5911C12.5273 4.42186 12.0926 4.33472 11.6536 4.33472C11.2145 4.33472 10.7799 4.42186 10.3748 4.5911C9.96967 4.76034 9.60219 5.00831 9.29363 5.32063C8.98508 5.63295 8.74159 6.00341 8.57728 6.41053C8.41297 6.81766 8.3311 7.25335 8.33643 7.69235V16.9609C8.32748 17.5789 8.44149 18.1926 8.67182 18.7662C8.90214 19.3398 9.2442 19.8619 9.67809 20.3021C10.112 20.7423 10.6291 21.0919 11.1993 21.3305C11.7695 21.5691 12.3814 21.692 12.9995 21.692C13.6176 21.692 14.2296 21.5691 14.7998 21.3305C15.37 21.0919 15.887 20.7423 16.3209 20.3021C16.7548 19.8619 17.0969 19.3398 17.3272 18.7662C17.5575 18.1926 17.6715 17.5789 17.6626 16.9609V8.29977" stroke="#00718F" stroke-width="1.5625" stroke-miterlimit="10" stroke-linecap="round"/>
</svg>
