<svg width="25" height="25" viewBox="0 0 25 25" fill="none" xmlns="http://www.w3.org/2000/svg">
<path d="M21.8749 21.4844C21.7562 21.4844 21.6391 21.4574 21.5324 21.4054C21.4257 21.3533 21.3323 21.2777 21.2592 21.1841C20.143 19.7549 19.1073 18.6519 17.6791 17.9127C16.3573 17.2305 14.6972 16.8746 12.4999 16.8082V20.7032C12.4995 20.8557 12.4544 21.0047 12.3702 21.1319C12.2861 21.2591 12.1666 21.3588 12.0264 21.4189C11.8862 21.479 11.7316 21.4967 11.5814 21.4699C11.4313 21.4431 11.2923 21.373 11.1816 21.2681L2.58782 13.065C2.51145 12.9921 2.45066 12.9044 2.40913 12.8073C2.3676 12.7102 2.34619 12.6057 2.34619 12.5001C2.34619 12.3944 2.3676 12.2899 2.40913 12.1928C2.45066 12.0957 2.51145 12.0081 2.58782 11.9351L11.1816 3.73199C11.2923 3.62715 11.4313 3.55701 11.5814 3.53022C11.7316 3.50343 11.8862 3.52116 12.0264 3.58122C12.1666 3.64129 12.2861 3.74106 12.3702 3.86824C12.4544 3.99541 12.4995 4.14444 12.4999 4.29693V8.22076C16.12 8.38726 18.8173 9.73004 20.5248 12.2183C21.9394 14.2794 22.6562 17.1338 22.6562 20.7032C22.6562 20.9104 22.5739 21.1091 22.4274 21.2556C22.2808 21.4021 22.0821 21.4844 21.8749 21.4844Z" fill="#00718F"/>
</svg>
