<svg width="26" height="26" viewBox="0 0 26 26" fill="none" xmlns="http://www.w3.org/2000/svg">
<path d="M3.34277 21.7166C3.18897 21.6636 3.05554 21.564 2.9611 21.4316C2.86665 21.2991 2.8159 21.1405 2.81592 20.9778C2.81592 17.4085 3.53271 14.554 4.94727 12.493C6.65625 10.0027 9.35205 8.66192 12.9722 8.49542V4.57159C12.9722 4.41861 13.0171 4.269 13.1014 4.14132C13.1856 4.01364 13.3055 3.91351 13.4462 3.85335C13.5868 3.79319 13.7421 3.77565 13.8926 3.8029C14.0431 3.83015 14.1823 3.901 14.293 4.00665L22.8867 12.2098C22.9631 12.2827 23.0239 12.3704 23.0654 12.4675C23.1069 12.5646 23.1283 12.6691 23.1283 12.7747C23.1283 12.8803 23.1069 12.9848 23.0654 13.0819C23.0239 13.179 22.9631 13.2667 22.8867 13.3397L14.293 21.5428C14.1823 21.6484 14.0431 21.7193 13.8926 21.7465C13.7421 21.7738 13.5868 21.7562 13.4462 21.6961C13.3055 21.6359 13.1856 21.5358 13.1014 21.4081C13.0171 21.2804 12.9722 21.1308 12.9722 20.9778V17.0828C10.7749 17.1492 9.11475 17.5052 7.79297 18.1883C6.36475 18.9266 5.3291 20.0296 4.21289 21.4598C4.11276 21.588 3.97509 21.6818 3.8191 21.728C3.66312 21.7742 3.4966 21.7706 3.34277 21.7176V21.7166Z" fill="#00718F"/>
</svg>
