<svg width="26" height="26" viewBox="0 0 26 26" fill="none" xmlns="http://www.w3.org/2000/svg">
<path d="M4.67843 22.2896H21.322C21.5923 22.2895 21.858 22.2193 22.0931 22.0859C22.3282 21.9524 22.5246 21.7603 22.6632 21.5282C22.8018 21.2961 22.8778 21.032 22.8838 20.7618C22.8898 20.4915 22.8256 20.2243 22.6975 19.9863L14.3762 4.53223C13.7859 3.43652 12.2146 3.43652 11.6242 4.53223L3.30294 19.9863C3.1748 20.2243 3.11059 20.4915 3.1166 20.7618C3.12261 21.032 3.19862 21.2961 3.33722 21.5282C3.47583 21.7603 3.67226 21.9524 3.90735 22.0859C4.14243 22.2193 4.40811 22.2895 4.67843 22.2896Z" stroke="#00718F" stroke-width="1.5625" stroke-linecap="round" stroke-linejoin="round"/>
<path d="M12.7199 10.0405L13.0002 15.9976L13.28 10.043C13.2817 10.0049 13.2756 9.9669 13.2622 9.93125C13.2487 9.8956 13.2281 9.86307 13.2017 9.83565C13.1752 9.80823 13.1434 9.78649 13.1083 9.77177C13.0731 9.75704 13.0354 9.74964 12.9973 9.75001C12.9598 9.75038 12.9228 9.75824 12.8885 9.77314C12.8541 9.78804 12.8231 9.80966 12.7973 9.83674C12.7714 9.86382 12.7513 9.89581 12.738 9.93081C12.7247 9.96582 12.7185 10.0031 12.7199 10.0405Z" stroke="#00718F" stroke-width="1.5625" stroke-linecap="round" stroke-linejoin="round"/>
<path d="M13 19.897C12.8069 19.897 12.618 19.8397 12.4575 19.7324C12.2969 19.6251 12.1717 19.4726 12.0978 19.2941C12.0239 19.1157 12.0045 18.9193 12.0422 18.7299C12.0799 18.5405 12.1729 18.3665 12.3095 18.2299C12.446 18.0933 12.62 18.0003 12.8095 17.9626C12.9989 17.9249 13.1953 17.9443 13.3737 18.0182C13.5522 18.0921 13.7047 18.2173 13.812 18.3779C13.9193 18.5385 13.9766 18.7273 13.9766 18.9204C13.9766 19.1794 13.8737 19.4278 13.6905 19.6109C13.5074 19.7941 13.259 19.897 13 19.897Z" fill="#00718F"/>
</svg>
