<svg width="25" height="25" viewBox="0 0 25 25" fill="none" xmlns="http://www.w3.org/2000/svg">
<path d="M19.6285 8.20312C19.4854 10.189 18.0122 11.7188 16.4058 11.7188C14.7994 11.7188 13.3238 10.1895 13.1831 8.20312C13.0367 6.13721 14.4707 4.6875 16.4058 4.6875C18.3409 4.6875 19.7749 6.1748 19.6285 8.20312Z" stroke="white" stroke-width="1.5625" stroke-linecap="round" stroke-linejoin="round"/>
<path d="M16.4061 14.8438C13.2239 14.8438 10.1639 16.4243 9.39727 19.5024C9.2957 19.9097 9.55108 20.3125 9.96953 20.3125H22.8431C23.2615 20.3125 23.5154 19.9097 23.4153 19.5024C22.6487 16.375 19.5887 14.8438 16.4061 14.8438Z" stroke="white" stroke-width="1.5625" stroke-miterlimit="10"/>
<path d="M9.76591 9.0791C9.65165 10.665 8.46122 11.9141 7.17802 11.9141C5.89481 11.9141 4.70243 10.6655 4.59013 9.0791C4.47343 7.4292 5.63212 6.25 7.17802 6.25C8.72392 6.25 9.88261 7.45947 9.76591 9.0791Z" stroke="white" stroke-width="1.5625" stroke-linecap="round" stroke-linejoin="round"/>
<path d="M10.0581 14.9414C9.17675 14.5376 8.20604 14.3823 7.17724 14.3823C4.63817 14.3823 2.19188 15.6445 1.57909 18.103C1.49852 18.4282 1.70263 18.75 2.03661 18.75H7.51903" stroke="white" stroke-width="1.5625" stroke-miterlimit="10" stroke-linecap="round"/>
</svg>
