<svg width="26" height="26" viewBox="0 0 26 26" fill="none" xmlns="http://www.w3.org/2000/svg">
<path d="M14.6573 13L19.296 8.36129C19.5161 8.14152 19.64 7.84331 19.6402 7.53224C19.6405 7.22118 19.5172 6.92274 19.2974 6.70259C19.0777 6.48244 18.7795 6.35861 18.4684 6.35834C18.1573 6.35806 17.8589 6.48137 17.6388 6.70113L13.0001 11.3398L8.36141 6.70113C8.14126 6.48098 7.84267 6.3573 7.53133 6.3573C7.21999 6.3573 6.9214 6.48098 6.70125 6.70113C6.4811 6.92128 6.35742 7.21987 6.35742 7.53121C6.35742 7.84255 6.4811 8.14114 6.70125 8.36129L11.3399 13L6.70125 17.6386C6.4811 17.8588 6.35742 18.1574 6.35742 18.4687C6.35742 18.78 6.4811 19.0786 6.70125 19.2988C6.9214 19.5189 7.21999 19.6426 7.53133 19.6426C7.84267 19.6426 8.14126 19.5189 8.36141 19.2988L13.0001 14.6601L17.6388 19.2988C17.8589 19.5189 18.1575 19.6426 18.4688 19.6426C18.7802 19.6426 19.0788 19.5189 19.2989 19.2988C19.5191 19.0786 19.6427 18.78 19.6427 18.4687C19.6427 18.1574 19.5191 17.8588 19.2989 17.6386L14.6573 13Z" fill="white"/>
</svg>
