<svg width="25" height="25" viewBox="0 0 25 25" fill="none" xmlns="http://www.w3.org/2000/svg">
<path d="M12.8068 9.39014C12.1657 9.32681 11.5206 9.46322 10.9599 9.78068C10.3993 10.0981 9.95047 10.5811 9.67492 11.1635C9.39938 11.7459 9.31058 12.3992 9.42068 13.0341C9.53079 13.6689 9.83442 14.2541 10.29 14.7097C10.7456 15.1653 11.3308 15.4689 11.9657 15.579C12.6005 15.6891 13.2538 15.6003 13.8362 15.3248C14.4186 15.0492 14.9016 14.6004 15.219 14.0398C15.5365 13.4791 15.6729 12.834 15.6096 12.1929C15.5374 11.4741 15.2189 10.8024 14.7081 10.2916C14.1973 9.78081 13.5256 9.46233 12.8068 9.39014ZM20.3313 12.5C20.3293 12.8397 20.3043 13.1788 20.2566 13.5151L22.4641 15.2466C22.5602 15.3263 22.625 15.4374 22.6469 15.5604C22.6688 15.6833 22.6464 15.81 22.5837 15.918L20.4953 19.5312C20.4319 19.6382 20.3328 19.7193 20.2154 19.7603C20.098 19.8013 19.9699 19.7996 19.8537 19.7554L17.6613 18.8726C17.5404 18.8244 17.4095 18.807 17.2802 18.8219C17.1509 18.8369 17.0274 18.8836 16.9206 18.958C16.586 19.1884 16.2344 19.3931 15.8689 19.5703C15.7539 19.6262 15.6545 19.7095 15.5794 19.8129C15.5043 19.9162 15.4558 20.0365 15.4382 20.1631L15.1096 22.5015C15.088 22.625 15.0242 22.7371 14.9291 22.8188C14.834 22.9005 14.7134 22.9466 14.5881 22.9492H10.4113C10.2881 22.9471 10.1692 22.903 10.0743 22.8243C9.97944 22.7456 9.91421 22.6369 9.88937 22.5161L9.56124 20.1812C9.54282 20.0532 9.49306 19.9318 9.41639 19.8277C9.33972 19.7236 9.23852 19.64 9.12179 19.5845C8.75666 19.4082 8.40625 19.203 8.07394 18.9707C7.96754 18.8967 7.84439 18.8503 7.71559 18.8357C7.5868 18.8211 7.4564 18.8388 7.33614 18.8872L5.14425 19.7695C5.02809 19.8138 4.90005 19.8156 4.78268 19.7747C4.66531 19.7338 4.56614 19.6528 4.50265 19.5459L2.41427 15.9326C2.35148 15.8247 2.32904 15.6979 2.35095 15.575C2.37286 15.452 2.43769 15.3409 2.5339 15.2612L4.39962 13.7964C4.50183 13.7152 4.58217 13.6099 4.63333 13.4898C4.68449 13.3697 4.70486 13.2388 4.69259 13.1089C4.67501 12.9053 4.66427 12.7021 4.66427 12.4985C4.66427 12.2949 4.67452 12.0947 4.69259 11.8955C4.70352 11.7664 4.68215 11.6365 4.63041 11.5177C4.57867 11.3989 4.49818 11.2948 4.3962 11.2148L2.53146 9.75C2.43681 9.66997 2.37334 9.55918 2.35219 9.43705C2.33103 9.31492 2.35352 9.18924 2.41573 9.08203L4.50411 5.46875C4.56753 5.36181 4.66667 5.28069 4.78404 5.23969C4.90142 5.19869 5.0295 5.20044 5.14571 5.24463L7.3381 6.12744C7.459 6.17558 7.58995 6.19297 7.71923 6.17806C7.8485 6.16314 7.97206 6.11639 8.07882 6.04199C8.41341 5.81158 8.76501 5.60689 9.13058 5.42969C9.24551 5.37383 9.34492 5.29053 9.42002 5.18715C9.49513 5.08377 9.54363 4.96348 9.56124 4.83691L9.88985 2.49854C9.91144 2.37504 9.97524 2.26287 10.0704 2.1812C10.1655 2.09954 10.286 2.05344 10.4113 2.05078H14.5881C14.7114 2.05291 14.8302 2.09697 14.9251 2.1757C15.02 2.25443 15.0852 2.36313 15.1101 2.48389L15.4382 4.81885C15.4566 4.94681 15.5064 5.06824 15.583 5.17233C15.6597 5.27643 15.7609 5.35997 15.8776 5.41553C16.2428 5.59178 16.5932 5.79702 16.9255 6.0293C17.0319 6.10333 17.155 6.14972 17.2838 6.1643C17.4126 6.17887 17.543 6.16117 17.6633 6.11279L19.8552 5.23047C19.9713 5.18624 20.0994 5.18441 20.2168 5.22532C20.3341 5.26623 20.4333 5.34725 20.4968 5.4541L22.5852 9.06738C22.648 9.17534 22.6704 9.30207 22.6485 9.42502C22.6266 9.54796 22.5617 9.65915 22.4655 9.73877L20.5998 11.2036C20.4972 11.2845 20.4164 11.3898 20.3648 11.5098C20.3132 11.6299 20.2924 11.761 20.3044 11.8911C20.3205 12.0933 20.3313 12.2964 20.3313 12.5Z" stroke="white" stroke-width="1.5625" stroke-linecap="round" stroke-linejoin="round"/>
</svg>
