<svg width="26" height="26" viewBox="0 0 26 26" fill="none" xmlns="http://www.w3.org/2000/svg">
<path d="M4.40625 7.92188V20.4219C4.4078 20.9394 4.61407 21.4353 4.98001 21.8012C5.34596 22.1672 5.84185 22.3735 6.35938 22.375H19.6406C20.1582 22.3735 20.654 22.1672 21.02 21.8012C21.3859 21.4353 21.5922 20.9394 21.5938 20.4219V7.92188" stroke="#00718F" stroke-width="1.5625" stroke-linecap="round" stroke-linejoin="round"/>
<path d="M21.7891 3.625H4.21094C3.45586 3.625 2.84375 4.23711 2.84375 4.99219V6.16406C2.84375 6.91914 3.45586 7.53125 4.21094 7.53125H21.7891C22.5441 7.53125 23.1562 6.91914 23.1562 6.16406V4.99219C23.1562 4.23711 22.5441 3.625 21.7891 3.625Z" stroke="#00718F" stroke-width="1.5625" stroke-linejoin="round"/>
<path d="M16.125 15.3438L13 18.4688L9.875 15.3438M13 17.3892V11.4375" stroke="#00718F" stroke-width="1.5625" stroke-linecap="round" stroke-linejoin="round"/>
</svg>
