<svg width="26" height="26" viewBox="0 0 26 26" fill="none" xmlns="http://www.w3.org/2000/svg">
<path d="M10.6562 3.625H13.9155C14.3298 3.62506 14.7271 3.78963 15.02 4.08252L21.9175 10.98C22.2104 11.2729 22.3749 11.6702 22.375 12.0845V21.5938C22.375 22.2154 22.1281 22.8115 21.6885 23.251C21.249 23.6906 20.6529 23.9375 20.0312 23.9375H9.875C9.2534 23.9375 8.65726 23.6906 8.21772 23.251C7.77818 22.8115 7.53125 22.2154 7.53125 21.5938V15.3438" stroke="white" stroke-width="1.5625" stroke-linecap="round" stroke-linejoin="round"/>
<path d="M14.5625 4.01562V9.875C14.5625 10.2894 14.7271 10.6868 15.0201 10.9799C15.3132 11.2729 15.7106 11.4375 16.125 11.4375H21.9844" stroke="white" stroke-width="1.5625" stroke-linecap="round" stroke-linejoin="round"/>
<path d="M8.3125 4.40625V11.8281C8.31453 11.9826 8.28561 12.1359 8.22744 12.279C8.16927 12.4221 8.08303 12.5521 7.9738 12.6613C7.86457 12.7705 7.73458 12.8568 7.59148 12.9149C7.44838 12.9731 7.29508 13.002 7.14062 13C6.55469 13 5.96875 12.5557 5.96875 11.8281V4.79688C5.96875 3.30322 6.77783 2.0625 8.3125 2.0625C9.84717 2.0625 10.6562 3.27344 10.6562 4.7666V11.5415C10.6562 13.6411 9.29785 15.3438 7.14062 15.3438C4.9834 15.3438 3.625 13.6416 3.625 11.5415V7.53125" stroke="white" stroke-width="1.5625" stroke-miterlimit="10" stroke-linecap="round"/>
</svg>
