<svg width="25" height="25" viewBox="0 0 25 25" fill="none" xmlns="http://www.w3.org/2000/svg">
<path d="M18.75 10.9375V19.9219C18.75 20.1784 18.6995 20.4323 18.6013 20.6693C18.5032 20.9063 18.3593 21.1216 18.1779 21.3029C17.9966 21.4843 17.7813 21.6282 17.5443 21.7263C17.3073 21.8245 17.0534 21.875 16.7969 21.875H5.07812C4.56012 21.875 4.06334 21.6692 3.69706 21.3029C3.33078 20.9367 3.125 20.4399 3.125 19.9219V8.20312C3.125 7.68512 3.33078 7.18834 3.69706 6.82206C4.06334 6.45578 4.56012 6.25 5.07812 6.25H13.2559" stroke="#00718F" stroke-width="1.5625" stroke-linecap="round" stroke-linejoin="round"/>
<path d="M22.4581 2.60011C22.3867 2.52171 22.3002 2.4586 22.2038 2.41457C22.1074 2.37055 22.003 2.34653 21.897 2.34398C21.791 2.34142 21.6857 2.36038 21.5872 2.3997C21.4888 2.43903 21.3993 2.4979 21.3243 2.57277L20.7203 3.17384C20.6471 3.24709 20.606 3.34641 20.606 3.44997C20.606 3.55352 20.6471 3.65284 20.7203 3.72609L21.274 4.27882C21.3103 4.31529 21.3534 4.34422 21.4009 4.36397C21.4484 4.38371 21.4994 4.39388 21.5508 4.39388C21.6023 4.39388 21.6532 4.38371 21.7007 4.36397C21.7483 4.34422 21.7914 4.31529 21.8277 4.27882L22.4166 3.69289C22.7144 3.39552 22.7422 2.91115 22.4581 2.60011ZM19.4991 4.39455L10.6846 13.1934C10.6312 13.2466 10.5923 13.3127 10.5718 13.3853L10.1641 14.5996C10.1544 14.6326 10.1537 14.6675 10.1621 14.7009C10.1706 14.7342 10.1879 14.7646 10.2122 14.7889C10.2365 14.8132 10.2669 14.8305 10.3002 14.8389C10.3335 14.8474 10.3685 14.8467 10.4014 14.8369L11.6148 14.4292C11.6874 14.4087 11.7535 14.3699 11.8067 14.3164L20.6055 5.50099C20.6869 5.41872 20.7326 5.30765 20.7326 5.19191C20.7326 5.07617 20.6869 4.9651 20.6055 4.88283L20.1197 4.39455C20.0373 4.3124 19.9257 4.26627 19.8094 4.26627C19.6931 4.26627 19.5815 4.3124 19.4991 4.39455Z" fill="#00718F"/>
</svg>
