<svg width="26" height="26" viewBox="0 0 26 26" fill="none" xmlns="http://www.w3.org/2000/svg">
<path d="M22.5884 3.41167C22.2176 3.04092 21.7148 2.83264 21.1904 2.83264C20.6661 2.83264 20.1632 3.04092 19.7925 3.41167L9.48438 14.8916C10.6113 15.1211 11.7363 16.2242 11.8896 17.2969L22.5884 6.20757C22.9591 5.8368 23.1674 5.33395 23.1674 4.80962C23.1674 4.28529 22.9591 3.78244 22.5884 3.41167ZM7.23828 16.9063C5.7793 16.9063 4.60156 18.1026 4.60156 19.585C4.60156 20.7544 3.58203 21.3707 2.84375 21.3707C3.65234 22.46 5.03223 23.1563 6.35938 23.1563C8.30176 23.1563 9.875 21.5582 9.875 19.585C9.875 18.1026 8.69727 16.9063 7.23828 16.9063Z" stroke="#00718F" stroke-width="1.5625" stroke-linecap="round" stroke-linejoin="round"/>
</svg>
