<svg width="26" height="26" viewBox="0 0 26 26" fill="none" xmlns="http://www.w3.org/2000/svg">
<path d="M22.375 22.375V12.2188M3.625 12.2188V22.375M2.0625 23.1562H23.9375M14.5625 23.1562V15.7344C14.5625 15.4236 14.686 15.1255 14.9057 14.9057C15.1255 14.686 15.4236 14.5625 15.7344 14.5625H18.8594C19.1702 14.5625 19.4682 14.686 19.688 14.9057C19.9078 15.1255 20.0312 15.4236 20.0312 15.7344V23.1562M19.1753 2.84375H6.82471C5.76074 2.84375 4.7998 3.42969 4.38672 4.33105L2.27246 8.94727C1.56055 10.5005 2.74268 12.2603 4.57666 12.3164H4.67432C6.20752 12.3164 7.4502 11.0869 7.4502 9.76611C7.4502 11.0845 8.69336 12.3164 10.2266 12.3164C11.7598 12.3164 13 11.1748 13 9.76611C13 11.0845 14.2427 12.3164 15.7759 12.3164C17.3091 12.3164 18.5522 11.1748 18.5522 9.76611C18.5522 11.1748 19.7949 12.3164 21.3281 12.3164H21.4233C23.2573 12.2593 24.4395 10.4995 23.7275 8.94727L21.6133 4.33105C21.2002 3.42969 20.2393 2.84375 19.1753 2.84375ZM7.14062 14.5625H11.0469C11.3577 14.5625 11.6557 14.686 11.8755 14.9057C12.0953 15.1255 12.2187 15.4236 12.2188 15.7344V20.0312H5.96875V15.7344C5.96875 15.4236 6.09221 15.1255 6.31198 14.9057C6.53175 14.686 6.82982 14.5625 7.14062 14.5625Z" stroke="#00718F" stroke-width="1.5625" stroke-linecap="round" stroke-linejoin="round"/>
</svg>
