<svg width="26" height="26" viewBox="0 0 26 26" fill="none" xmlns="http://www.w3.org/2000/svg">
<path d="M12.6094 3.625C7.64795 3.625 3.625 7.64795 3.625 12.6094C3.625 17.5708 7.64795 21.5938 12.6094 21.5938C17.5708 21.5938 21.5938 17.5708 21.5938 12.6094C21.5938 7.64795 17.5708 3.625 12.6094 3.625Z" stroke="#00718F" stroke-width="1.5625" stroke-miterlimit="10"/>
<path d="M11.2422 11.2422H12.8047V16.9062" stroke="#00718F" stroke-width="1.5625" stroke-linecap="round" stroke-linejoin="round"/>
<path d="M10.6562 17.1016H14.9531" stroke="#00718F" stroke-width="1.5625" stroke-miterlimit="10" stroke-linecap="round"/>
<path d="M12.6094 6.84766C12.3583 6.84766 12.1128 6.92211 11.9041 7.06161C11.6953 7.20111 11.5326 7.39938 11.4365 7.63136C11.3404 7.86334 11.3153 8.1186 11.3642 8.36486C11.4132 8.61113 11.5341 8.83733 11.7117 9.01488C11.8892 9.19243 12.1154 9.31334 12.3617 9.36232C12.608 9.41131 12.8632 9.38617 13.0952 9.29008C13.3272 9.19399 13.5255 9.03127 13.665 8.8225C13.8045 8.61373 13.8789 8.36828 13.8789 8.11719C13.8789 7.78049 13.7452 7.45758 13.5071 7.21949C13.269 6.98141 12.9461 6.84766 12.6094 6.84766Z" fill="#00718F"/>
</svg>
