<svg width="26" height="26" viewBox="0 0 26 26" fill="none" xmlns="http://www.w3.org/2000/svg">
<path d="M13.5326 16.503V14.6807C10.746 14.6807 9.40612 15.3384 8.23082 16.5694C7.96715 16.8453 7.4984 16.6338 7.53307 16.2554C7.79918 13.2549 9.20006 10.5381 13.5326 10.5381V8.71586C13.5333 8.63702 13.557 8.5601 13.6007 8.49448C13.6444 8.42886 13.7063 8.37738 13.7788 8.34632C13.8513 8.31526 13.9312 8.30597 14.0089 8.31956C14.0865 8.33316 14.1586 8.36906 14.2162 8.42289L18.3426 12.3164C18.3824 12.3539 18.4141 12.3991 18.4357 12.4492C18.4574 12.4993 18.4686 12.5533 18.4686 12.608C18.4686 12.6626 18.4574 12.7166 18.4357 12.7667C18.4141 12.8169 18.3824 12.862 18.3426 12.8995L14.2206 16.7945C14.1632 16.8497 14.0909 16.8868 14.0127 16.9013C13.9344 16.9157 13.8536 16.9069 13.7803 16.8759C13.7071 16.8448 13.6445 16.7929 13.6005 16.7266C13.5564 16.6603 13.5328 16.5826 13.5326 16.503Z" fill="#00718F"/>
<path d="M3.625 13C3.625 18.1758 7.82422 22.375 13 22.375C18.1758 22.375 22.375 18.1758 22.375 13C22.375 7.82422 18.1758 3.625 13 3.625C7.82422 3.625 3.625 7.82422 3.625 13Z" stroke="#00718F" stroke-width="1.5625" stroke-miterlimit="10"/>
</svg>
