<svg width="26" height="26" viewBox="0 0 26 26" fill="none" xmlns="http://www.w3.org/2000/svg">
<path d="M7.10059 19.5498C7.23247 19.7009 7.39518 19.8221 7.57776 19.9051C7.76035 19.9882 7.9586 20.0312 8.15918 20.0312H20.1836C20.5569 20.0296 20.9145 19.8805 21.1785 19.6165C21.4425 19.3525 21.5916 18.9949 21.5933 18.6216V7.37842C21.5916 7.00506 21.4425 6.64748 21.1785 6.38348C20.9145 6.11947 20.5569 5.97042 20.1836 5.96875H8.15918C7.95878 5.96894 7.76073 6.01189 7.57825 6.09475C7.39578 6.17761 7.2331 6.29845 7.10107 6.44922L2.76172 13L7.10059 19.5483V19.5498Z" stroke="#00718F" stroke-width="1.5625" stroke-linejoin="round"/>
<path d="M16.939 9.89111L10.5908 16.2393M16.939 16.2393L10.5908 9.89111" stroke="#00718F" stroke-width="1.5625" stroke-linecap="round" stroke-linejoin="round"/>
</svg>
