<svg width="26" height="26" viewBox="0 0 26 26" fill="none" xmlns="http://www.w3.org/2000/svg">
<path d="M22.188 2.0625H3.93164C2.93408 2.0625 2.0625 2.78027 2.0625 3.76611V22.063C2.0625 23.0542 2.93408 23.9375 3.93164 23.9375H22.1826C23.1855 23.9375 23.9375 23.0483 23.9375 22.063V3.76611C23.9434 2.78027 23.1855 2.0625 22.188 2.0625ZM8.84326 20.2964H5.70947V10.5527H8.84326V20.2964ZM7.38477 9.07129H7.3623C6.35937 9.07129 5.70996 8.32471 5.70996 7.39014C5.70996 6.43848 6.37647 5.70947 7.40186 5.70947C8.42725 5.70947 9.05469 6.43311 9.07715 7.39014C9.07666 8.32471 8.42725 9.07129 7.38477 9.07129ZM20.2964 20.2964H17.1626V14.9688C17.1626 13.6924 16.7065 12.8203 15.5728 12.8203C14.7065 12.8203 14.1938 13.4063 13.9658 13.9771C13.8804 14.1821 13.8574 14.4614 13.8574 14.7466V20.2964H10.7236V10.5527H13.8574V11.9087C14.3135 11.2593 15.0259 10.3247 16.6836 10.3247C18.7407 10.3247 20.2969 11.6807 20.2969 14.604L20.2964 20.2964Z" fill="#00718F"/>
</svg>
