<svg width="26" height="26" viewBox="0 0 26 26" fill="none" xmlns="http://www.w3.org/2000/svg">
<path d="M8.3125 7.53125H22.375M8.3125 13H22.375M8.3125 18.4688H22.375" stroke="white" stroke-width="2.34375" stroke-linecap="round" stroke-linejoin="round"/>
<path d="M4.40625 8.3125C4.83772 8.3125 5.1875 7.96272 5.1875 7.53125C5.1875 7.09978 4.83772 6.75 4.40625 6.75C3.97478 6.75 3.625 7.09978 3.625 7.53125C3.625 7.96272 3.97478 8.3125 4.40625 8.3125Z" stroke="white" stroke-width="1.5625" stroke-linecap="round" stroke-linejoin="round"/>
<path d="M4.40625 13.7812C4.83772 13.7812 5.1875 13.4315 5.1875 13C5.1875 12.5685 4.83772 12.2188 4.40625 12.2188C3.97478 12.2188 3.625 12.5685 3.625 13C3.625 13.4315 3.97478 13.7812 4.40625 13.7812Z" stroke="white" stroke-width="1.5625" stroke-linecap="round" stroke-linejoin="round"/>
<path d="M4.40625 19.25C4.83772 19.25 5.1875 18.9002 5.1875 18.4688C5.1875 18.0373 4.83772 17.6875 4.40625 17.6875C3.97478 17.6875 3.625 18.0373 3.625 18.4688C3.625 18.9002 3.97478 19.25 4.40625 19.25Z" stroke="white" stroke-width="1.5625" stroke-linecap="round" stroke-linejoin="round"/>
</svg>
