<svg width="26" height="26" viewBox="0 0 26 26" fill="none" xmlns="http://www.w3.org/2000/svg">
<path d="M5.94092 6.33496L6.91748 21.96C6.96387 22.8628 7.62061 23.5225 8.47998 23.5225H17.4644C18.3271 23.5225 18.9717 22.8628 19.0269 21.96L20.0034 6.33496" stroke="#00718F" stroke-width="1.5625" stroke-linecap="round" stroke-linejoin="round"/>
<path d="M4.37842 6.33496H21.5659Z" fill="#00718F"/>
<path d="M4.37842 6.33496H21.5659" stroke="#00718F" stroke-width="1.5625" stroke-miterlimit="10" stroke-linecap="round"/>
<path d="M9.84717 6.33497V4.38184C9.84672 4.22782 9.87672 4.07523 9.93545 3.93285C9.99419 3.79047 10.0805 3.6611 10.1894 3.55219C10.2983 3.44329 10.4277 3.35698 10.5701 3.29825C10.7124 3.23952 10.865 3.20951 11.019 3.20997H14.9253C15.0793 3.20951 15.2319 3.23952 15.3743 3.29825C15.5167 3.35698 15.646 3.44329 15.7549 3.55219C15.8638 3.6611 15.9502 3.79047 16.0089 3.93285C16.0676 4.07523 16.0976 4.22782 16.0972 4.38184V6.33497M12.9722 9.45997V20.3975M9.45654 9.45997L9.84717 20.3975M16.4878 9.45997L16.0972 20.3975" stroke="#00718F" stroke-width="1.5625" stroke-linecap="round" stroke-linejoin="round"/>
</svg>
