<svg width="26" height="26" viewBox="0 0 26 26" fill="none" xmlns="http://www.w3.org/2000/svg">
<path d="M13 15.3438C14.2944 15.3438 15.3438 14.2944 15.3438 13C15.3438 11.7056 14.2944 10.6562 13 10.6562C11.7056 10.6562 10.6562 11.7056 10.6562 13C10.6562 14.2944 11.7056 15.3438 13 15.3438Z" fill="#00718F"/>
<path d="M13 23.1562C14.2944 23.1562 15.3438 22.1069 15.3438 20.8125C15.3438 19.5181 14.2944 18.4688 13 18.4688C11.7056 18.4688 10.6562 19.5181 10.6562 20.8125C10.6562 22.1069 11.7056 23.1562 13 23.1562Z" fill="#00718F"/>
<path d="M13 7.53125C14.2944 7.53125 15.3438 6.48192 15.3438 5.1875C15.3438 3.89308 14.2944 2.84375 13 2.84375C11.7056 2.84375 10.6562 3.89308 10.6562 5.1875C10.6562 6.48192 11.7056 7.53125 13 7.53125Z" fill="#00718F"/>
</svg>
