<svg width="26" height="26" viewBox="0 0 26 26" fill="none" xmlns="http://www.w3.org/2000/svg">
<path d="M19.25 18.4688H20.4219C20.9394 18.4672 21.4353 18.2609 21.8012 17.895C22.1672 17.529 22.3735 17.0332 22.375 16.5156V8.70312C22.3735 8.1856 22.1672 7.68971 21.8012 7.32376C21.4353 6.95782 20.9394 6.75155 20.4219 6.75H5.57812C5.0606 6.75155 4.56471 6.95782 4.19876 7.32376C3.83282 7.68971 3.62655 8.1856 3.625 8.70312V16.5156C3.62655 17.0332 3.83282 17.529 4.19876 17.895C4.56471 18.2609 5.0606 18.4672 5.57812 18.4688H6.75" stroke="#00718F" stroke-width="1.5625" stroke-linejoin="round"/>
<path d="M18.0625 12.2188H7.9375C7.28166 12.2188 6.75 12.7504 6.75 13.4063V21.1875C6.75 21.8433 7.28166 22.375 7.9375 22.375H18.0625C18.7183 22.375 19.25 21.8433 19.25 21.1875V13.4063C19.25 12.7504 18.7183 12.2188 18.0625 12.2188Z" stroke="#00718F" stroke-width="1.5625" stroke-linejoin="round"/>
<path d="M19.25 6.75V5.57812C19.2485 5.0606 19.0422 4.56471 18.6762 4.19876C18.3103 3.83282 17.8144 3.62655 17.2969 3.625H8.70312C8.1856 3.62655 7.68971 3.83282 7.32376 4.19876C6.95782 4.56471 6.75155 5.0606 6.75 5.57812V6.75" stroke="#00718F" stroke-width="1.5625" stroke-linejoin="round"/>
<path d="M19.6406 10.6562C20.2878 10.6562 20.8125 10.1316 20.8125 9.48438C20.8125 8.83717 20.2878 8.3125 19.6406 8.3125C18.9934 8.3125 18.4688 8.83717 18.4688 9.48438C18.4688 10.1316 18.9934 10.6562 19.6406 10.6562Z" fill="#00718F"/>
</svg>
