<svg width="25" height="25" viewBox="0 0 25 25" fill="none" xmlns="http://www.w3.org/2000/svg">
<path d="M22.9165 14.5833H21.8748C21.8748 10.5521 18.6144 7.29165 14.5832 7.29165H13.5415V5.96873C13.8583 5.78583 14.1213 5.52275 14.3042 5.20594C14.487 4.88914 14.5833 4.52977 14.5832 4.16398C14.5831 3.79818 14.4867 3.43886 14.3037 3.12215C14.1206 2.80543 13.8575 2.54249 13.5406 2.35976C13.2237 2.17702 12.8643 2.08094 12.4985 2.08118C12.1327 2.08141 11.7734 2.17795 11.4568 2.36109C11.1401 2.54423 10.8773 2.80751 10.6947 3.12446C10.5121 3.44141 10.4161 3.80085 10.4165 4.16665C10.4165 4.93748 10.8332 5.61456 11.4582 5.96873V7.29165H10.4165C6.38525 7.29165 3.12484 10.5521 3.12484 14.5833H2.08317C1.51025 14.5833 1.0415 15.0521 1.0415 15.625V18.75C1.0415 19.3229 1.51025 19.7916 2.08317 19.7916H3.12484V20.8333C3.12484 21.3858 3.34433 21.9157 3.73503 22.3065C4.12573 22.6972 4.65564 22.9166 5.20817 22.9166H19.7915C20.9478 22.9166 21.8748 21.9896 21.8748 20.8333V19.7916H22.9165C23.4894 19.7916 23.9582 19.3229 23.9582 18.75V15.625C23.9582 15.0521 23.4894 14.5833 22.9165 14.5833ZM21.8748 17.7083H19.7915V20.8333H5.20817V17.7083H3.12484V16.6666H5.20817V14.5833C5.20817 11.7083 7.5415 9.37498 10.4165 9.37498H14.5832C17.4582 9.37498 19.7915 11.7083 19.7915 14.5833V16.6666H21.8748V17.7083ZM8.854 14.0625L11.3123 16.5208L10.0832 17.75L8.854 16.5208L7.62484 17.75L6.39567 16.5208L8.854 14.0625ZM16.1457 14.0625L18.604 16.5208L17.3748 17.75L16.1457 16.5208L14.9165 17.75L13.6873 16.5208L16.1457 14.0625Z" fill="#00718F"/>
</svg>
