<svg width="26" height="26" viewBox="0 0 26 26" fill="none" xmlns="http://www.w3.org/2000/svg">
<path d="M19.1001 3.30127C18.955 3.15619 18.7827 3.04111 18.5931 2.96261C18.4035 2.8841 18.2003 2.84372 17.9951 2.84375H5.10059C4.8042 2.84369 4.5107 2.90202 4.23686 3.01541C3.96302 3.1288 3.7142 3.29504 3.50462 3.50462C3.29504 3.7142 3.1288 3.96302 3.01541 4.23686C2.90202 4.5107 2.84369 4.8042 2.84375 5.10059V20.8994C2.84369 21.1958 2.90202 21.4893 3.01541 21.7631C3.1288 22.037 3.29504 22.2858 3.50462 22.4954C3.7142 22.705 3.96302 22.8712 4.23686 22.9846C4.5107 23.098 4.8042 23.1563 5.10059 23.1562H20.8994C21.4974 23.1544 22.0704 22.9161 22.4932 22.4932C22.9161 22.0704 23.1544 21.4974 23.1562 20.8994V8.00488C23.1563 7.79968 23.1159 7.59648 23.0374 7.40689C22.9589 7.21729 22.8438 7.04502 22.6987 6.8999L19.1001 3.30127ZM13 20.8125C12.3819 20.8125 11.7777 20.6292 11.2638 20.2858C10.7499 19.9425 10.3494 19.4544 10.1129 18.8834C9.87635 18.3124 9.81447 17.684 9.93505 17.0778C10.0556 16.4717 10.3533 15.9148 10.7903 15.4778C11.2273 15.0408 11.7842 14.7431 12.3903 14.6225C12.9965 14.502 13.6249 14.5639 14.1959 14.8004C14.7669 15.0369 15.255 15.4374 15.5983 15.9513C15.9417 16.4652 16.125 17.0694 16.125 17.6875C16.1255 18.098 16.045 18.5046 15.8882 18.884C15.7313 19.2634 15.5011 19.6081 15.2109 19.8984C14.9206 20.1886 14.5759 20.4188 14.1965 20.5757C13.8171 20.7325 13.4105 20.813 13 20.8125ZM15.3438 9.875H5.96875C5.76155 9.875 5.56284 9.79269 5.41632 9.64618C5.26981 9.49966 5.1875 9.30095 5.1875 9.09375V5.96875C5.1875 5.76155 5.26981 5.56284 5.41632 5.41632C5.56284 5.26981 5.76155 5.1875 5.96875 5.1875H15.3438C15.551 5.1875 15.7497 5.26981 15.8962 5.41632C16.0427 5.56284 16.125 5.76155 16.125 5.96875V9.09375C16.125 9.30095 16.0427 9.49966 15.8962 9.64618C15.7497 9.79269 15.551 9.875 15.3438 9.875Z" stroke="#00718F" stroke-width="1.5625" stroke-linecap="round" stroke-linejoin="round"/>
</svg>
