<svg width="26" height="26" viewBox="0 0 26 26" fill="none" xmlns="http://www.w3.org/2000/svg">
<path d="M22.7993 21.0757L18.2051 16.4814C19.3112 15.009 19.9083 13.2166 19.9063 11.375C19.9063 6.6709 16.0791 2.84375 11.375 2.84375C6.6709 2.84375 2.84375 6.6709 2.84375 11.375C2.84375 16.0791 6.6709 19.9063 11.375 19.9063C13.2166 19.9083 15.009 19.3112 16.4814 18.2051L21.0757 22.7993C21.3082 23.0072 21.6116 23.1182 21.9234 23.1094C22.2352 23.1007 22.5318 22.973 22.7524 22.7524C22.973 22.5318 23.1007 22.2352 23.1094 21.9234C23.1182 21.6116 23.0072 21.3082 22.7993 21.0757ZM5.28125 11.375C5.28125 10.1698 5.63864 8.99161 6.30823 7.98949C6.97782 6.98738 7.92954 6.20633 9.04302 5.74511C10.1565 5.28389 11.3818 5.16321 12.5638 5.39834C13.7459 5.63347 14.8317 6.21384 15.6839 7.06607C16.5362 7.91829 17.1165 9.0041 17.3517 10.1862C17.5868 11.3682 17.4661 12.5935 17.0049 13.707C16.5437 14.8205 15.7626 15.7722 14.7605 16.4418C13.7584 17.1114 12.5802 17.4687 11.375 17.4687C9.75943 17.4668 8.21059 16.8242 7.06821 15.6818C5.92583 14.5394 5.28319 12.9906 5.28125 11.375Z" fill="#00718F"/>
</svg>
