<svg width="26" height="26" viewBox="0 0 26 26" fill="none" xmlns="http://www.w3.org/2000/svg">
<path d="M22.766 6.75C22.448 6.75008 22.1348 6.82781 21.8537 6.97643C21.5725 7.12505 21.332 7.34007 21.1528 7.6028C20.9737 7.86554 20.8614 8.16804 20.8257 8.48404C20.79 8.80003 20.832 9.11996 20.9481 9.41602L16.8383 13.5259C16.3801 13.3455 15.8706 13.3455 15.4125 13.5259L12.4745 10.5879C12.5908 10.2918 12.6331 9.9717 12.5975 9.65553C12.562 9.33936 12.4497 9.03666 12.2705 8.77376C12.0914 8.51085 11.8507 8.2957 11.5694 8.14701C11.2881 7.99832 10.9748 7.92059 10.6566 7.92059C10.3385 7.92059 10.0251 7.99832 9.74383 8.14701C9.46256 8.2957 9.22186 8.51085 9.04268 8.77376C8.8635 9.03666 8.75126 9.33936 8.71571 9.65553C8.68017 9.9717 8.72241 10.2918 8.83874 10.5879L3.94763 15.479C3.52992 15.3151 3.06852 15.3001 2.64103 15.4364C2.21353 15.5727 1.84601 15.8521 1.60025 16.2275C1.35449 16.6029 1.2455 17.0515 1.29158 17.4978C1.33767 17.9442 1.53603 18.361 1.85331 18.6783C2.17059 18.9956 2.58744 19.1939 3.03377 19.24C3.4801 19.2861 3.92869 19.1771 4.30411 18.9314C4.67953 18.6856 4.95888 18.3181 5.09519 17.8906C5.23151 17.4631 5.21647 17.0017 5.05261 16.584L9.94372 11.6929C10.4019 11.8732 10.9114 11.8732 11.3695 11.6929L14.3075 14.6309C14.1912 14.927 14.1489 15.2471 14.1845 15.5632C14.22 15.8794 14.3322 16.1821 14.5114 16.445C14.6906 16.7079 14.9313 16.9231 15.2126 17.0717C15.4939 17.2204 15.8072 17.2982 16.1254 17.2982C16.4435 17.2982 16.7569 17.2204 17.0381 17.0717C17.3194 16.9231 17.5601 16.7079 17.7393 16.445C17.9185 16.1821 18.0307 15.8794 18.0663 15.5632C18.1018 15.2471 18.0596 14.927 17.9432 14.6309L22.0531 10.521C22.3205 10.6261 22.6079 10.6708 22.8946 10.6521C23.1813 10.6334 23.4604 10.5516 23.7119 10.4126C23.9634 10.2737 24.1811 10.0809 24.3496 9.84813C24.518 9.61535 24.633 9.34827 24.6864 9.06593C24.7398 8.78359 24.7302 8.49296 24.6583 8.21475C24.5865 7.93653 24.4542 7.6776 24.2707 7.45642C24.0873 7.23523 23.8574 7.05724 23.5973 6.93513C23.3372 6.81303 23.0533 6.74981 22.766 6.75Z" fill="#00718F"/>
</svg>
