<svg width="25" height="25" viewBox="0 0 25 25" fill="none" xmlns="http://www.w3.org/2000/svg">
<path d="M17.9688 1.5625H7.03125C5.73683 1.5625 4.6875 2.61183 4.6875 3.90625V21.0938C4.6875 22.3882 5.73683 23.4375 7.03125 23.4375H17.9688C19.2632 23.4375 20.3125 22.3882 20.3125 21.0938V3.90625C20.3125 2.61183 19.2632 1.5625 17.9688 1.5625Z" stroke="white" stroke-width="1.5625" stroke-linejoin="round"/>
<path d="M10.1562 3.90625H14.8438" stroke="white" stroke-width="1.5625" stroke-linecap="round" stroke-linejoin="round"/>
<path d="M16.3467 13.611C16.1624 13.4147 15.9392 13.259 15.6914 13.1538C15.4435 13.0487 15.1765 12.9963 14.9072 13.0002C14.3408 13.0002 13.8286 13.2155 13.4649 13.6071C13.1011 13.9987 12.918 14.5407 12.96 15.1208C13.0435 16.2673 13.917 17.1994 14.9072 17.1994C15.8975 17.1994 16.7695 16.2673 16.854 15.1218C16.897 14.5466 16.7163 14.01 16.3467 13.611ZM18.2124 21.594H11.6021C11.516 21.5953 11.4307 21.5778 11.3522 21.5426C11.2736 21.5074 11.2037 21.4555 11.1475 21.3903C11.0865 21.3173 11.0427 21.2314 11.0194 21.1391C10.996 21.0468 10.9938 20.9504 11.0127 20.8571C11.1714 19.9997 11.666 19.2795 12.4434 18.7741C13.1338 18.3254 14.0088 18.0783 14.9072 18.0783C15.8057 18.0783 16.6807 18.3254 17.3711 18.7741C18.1485 19.2795 18.6431 19.9997 18.8018 20.8571C18.8207 20.9504 18.8185 21.0468 18.7951 21.1391C18.7718 21.2314 18.728 21.3173 18.667 21.3903C18.6107 21.4555 18.5409 21.5074 18.4623 21.5426C18.3838 21.5778 18.2985 21.5953 18.2124 21.594Z" fill="white"/>
</svg>
