<svg width="25" height="25" viewBox="0 0 25 25" fill="none" xmlns="http://www.w3.org/2000/svg">
<path d="M18.3595 7.03125C18.1681 9.61279 16.211 11.7188 14.0626 11.7188C11.9142 11.7188 9.95371 9.61328 9.76573 7.03125C9.57041 4.3457 11.4747 2.34375 14.0626 2.34375C16.6505 2.34375 18.5548 4.39453 18.3595 7.03125Z" stroke="white" stroke-width="1.5625" stroke-linecap="round" stroke-linejoin="round"/>
<path d="M14.0625 14.8438C9.8145 14.8438 5.50298 17.1875 4.70513 21.6113C4.60747 22.1445 4.91069 22.6562 5.46929 22.6562H22.6563C23.2149 22.6562 23.5166 22.1445 23.4205 21.6113C22.6221 17.1875 18.3106 14.8438 14.0625 14.8438Z" stroke="white" stroke-width="1.5625" stroke-miterlimit="10"/>
<path d="M4.29688 8.59375V14.0625M7.03125 11.3281H1.5625" stroke="white" stroke-width="1.5625" stroke-linecap="round" stroke-linejoin="round"/>
</svg>
