<svg width="26" height="26" viewBox="0 0 26 26" fill="none" xmlns="http://www.w3.org/2000/svg">
<path d="M18.8595 7.53125C18.6681 10.1128 16.711 12.2188 14.5626 12.2188C12.4142 12.2188 10.4537 10.1133 10.2657 7.53125C10.0704 4.8457 11.9747 2.84375 14.5626 2.84375C17.1505 2.84375 19.0548 4.89453 18.8595 7.53125Z" stroke="#00718F" stroke-width="1.5625" stroke-linecap="round" stroke-linejoin="round"/>
<path d="M14.5621 15.3438C10.314 15.3438 6.00249 17.6875 5.20464 22.1113C5.10698 22.6445 5.4102 23.1562 5.9688 23.1562H23.1558C23.7144 23.1562 24.0162 22.6445 23.92 22.1113C23.1216 17.6875 18.8101 15.3438 14.5621 15.3438Z" stroke="#00718F" stroke-width="1.5625" stroke-miterlimit="10"/>
<path d="M4.79688 9.09375V14.5625M7.53125 11.8281H2.0625" stroke="#00718F" stroke-width="1.5625" stroke-linecap="round" stroke-linejoin="round"/>
</svg>
