<svg width="25" height="25" viewBox="0 0 25 25" fill="none" xmlns="http://www.w3.org/2000/svg">
<path d="M17.9688 1.5625H7.03125C5.73683 1.5625 4.6875 2.61183 4.6875 3.90625V21.0938C4.6875 22.3882 5.73683 23.4375 7.03125 23.4375H17.9688C19.2632 23.4375 20.3125 22.3882 20.3125 21.0938V3.90625C20.3125 2.61183 19.2632 1.5625 17.9688 1.5625Z" stroke="#00718F" stroke-width="1.5625" stroke-linejoin="round"/>
<path d="M10.1562 3.90625H14.8438" stroke="#00718F" stroke-width="1.5625" stroke-linecap="round" stroke-linejoin="round"/>
<path d="M16.2832 13.892C16.099 13.6957 15.8758 13.54 15.6279 13.4348C15.3801 13.3297 15.113 13.2773 14.8438 13.2812C14.2774 13.2812 13.7652 13.4965 13.4014 13.8881C13.0376 14.2797 12.8545 14.8217 12.8965 15.4018C12.98 16.5483 13.8535 17.4804 14.8438 17.4804C15.834 17.4804 16.7061 16.5483 16.7905 15.4028C16.8335 14.8276 16.6529 14.291 16.2832 13.892ZM18.1489 21.875H11.5386C11.4525 21.8763 11.3672 21.8588 11.2887 21.8236C11.2101 21.7884 11.1403 21.7365 11.084 21.6713C11.023 21.5983 10.9792 21.5124 10.9559 21.4201C10.9325 21.3278 10.9303 21.2314 10.9492 21.1381C11.1079 20.2807 11.6026 19.5605 12.3799 19.0551C13.0703 18.6064 13.9453 18.3593 14.8438 18.3593C15.7422 18.3593 16.6172 18.6064 17.3076 19.0551C18.085 19.5605 18.5796 20.2807 18.7383 21.1381C18.7573 21.2314 18.755 21.3278 18.7317 21.4201C18.7083 21.5124 18.6645 21.5983 18.6035 21.6713C18.5473 21.7365 18.4774 21.7884 18.3988 21.8236C18.3203 21.8588 18.235 21.8763 18.1489 21.875Z" fill="#00718F"/>
</svg>
