<svg width="25" height="25" viewBox="0 0 25 25" fill="none" xmlns="http://www.w3.org/2000/svg">
<path d="M11.9672 16.0029V14.1807C14.7538 14.1807 16.0937 14.8384 17.269 16.0693C17.5327 16.3452 18.0014 16.1338 17.9667 15.7554C17.7006 12.7549 16.2997 10.0381 11.9672 10.0381V8.21583C11.9669 8.1365 11.9434 8.059 11.8995 7.99289C11.8557 7.92678 11.7935 7.87495 11.7205 7.8438C11.6476 7.81264 11.5671 7.80353 11.489 7.81758C11.411 7.83163 11.3387 7.86823 11.2812 7.92286L7.15716 11.8164C7.11741 11.8538 7.08573 11.899 7.06407 11.9492C7.04242 11.9993 7.03125 12.0533 7.03125 12.1079C7.03125 12.1625 7.04242 12.2166 7.06407 12.2667C7.08573 12.3168 7.11741 12.362 7.15716 12.3994L11.2792 16.2944C11.3366 16.3496 11.4089 16.3868 11.4871 16.4012C11.5654 16.4157 11.6462 16.4069 11.7195 16.3758C11.7927 16.3448 11.8553 16.2929 11.8993 16.2266C11.9434 16.1603 11.967 16.0825 11.9672 16.0029Z" fill="#00718F"/>
<path d="M12.5 3.125C7.32422 3.125 3.125 7.32422 3.125 12.5C3.125 17.6758 7.32422 21.875 12.5 21.875C17.6758 21.875 21.875 17.6758 21.875 12.5C21.875 7.32422 17.6758 3.125 12.5 3.125Z" stroke="#00718F" stroke-width="1.5625" stroke-miterlimit="10"/>
</svg>
